<?xml version="1.0" standalone="no"?>
<!DOCTYPE svg PUBLIC "-//W3C//DTD SVG 20010904//EN"
 "http://www.w3.org/TR/2001/REC-SVG-20010904/DTD/svg10.dtd">
<svg version="1.0" xmlns="http://www.w3.org/2000/svg"
 width="170.000000pt" height="80.000000pt" viewBox="0 0 170.000000 80.000000"
 preserveAspectRatio="xMidYMid meet">
<metadata>
Created by potrace 1.16, written by Peter Selinger 2001-2019
</metadata>
<g transform="translate(0.000000,80.000000) scale(0.014167,-0.006667)"
fill="#000000" stroke="none">
<path d="M4580 6000 l0 -1310 25 0 25 0 0 1310 0 1310 -25 0 -25 0 0 -1310z"/>
<path d="M8064 6722 c-99 -33 -154 -84 -196 -184 -23 -53 -23 -56 -23 -548 l0
-495 31 -65 c37 -77 78 -120 142 -152 42 -20 61 -23 177 -23 147 0 178 10 246
76 47 47 68 86 91 178 16 66 18 118 18 480 -1 357 -3 415 -19 483 -32 136 -93
209 -207 248 -70 25 -187 25 -260 2z m188 -224 c42 -21 43 -35 45 -495 3 -467
1 -491 -43 -520 -29 -18 -94 -19 -123 -1 -44 27 -46 48 -46 518 0 408 1 448
18 473 27 42 95 53 149 25z"/>
<path d="M9500 5996 l0 -726 213 0 c183 0 220 3 270 20 115 38 174 114 202
256 13 67 15 141 10 474 -4 217 -11 420 -17 450 -14 74 -38 118 -91 167 -69
64 -115 74 -369 80 l-218 6 0 -727z m400 484 c43 -23 45 -37 48 -430 5 -550 6
-547 -130 -557 l-78 -6 0 500 c0 275 3 503 8 507 9 11 126 0 152 -14z"/>
<path d="M5540 6116 c0 -585 0 -597 22 -662 45 -137 161 -214 322 -214 139 0
251 62 305 168 37 72 42 169 39 747 l-3 550 -109 3 c-81 2 -112 -1 -118 -10
-4 -7 -5 -256 -1 -553 5 -487 4 -546 -11 -597 -10 -34 -24 -62 -36 -68 -21
-11 -99 -14 -124 -4 -40 15 -41 30 -46 639 l-5 590 -117 3 -118 3 0 -595z"/>
<path d="M6372 5993 l3 -718 114 -3 c85 -2 117 1 123 10 4 7 8 137 7 288 l0
275 103 6 c135 7 184 26 247 94 40 45 52 67 70 133 29 109 29 280 -1 399 -19
76 -27 91 -72 139 -80 85 -116 94 -381 94 l-215 0 2 -717z m414 464 c17 -20
24 -45 29 -102 8 -79 0 -201 -15 -240 -11 -29 -58 -45 -129 -45 l-56 0 0 211
0 211 74 -4 c65 -5 78 -9 97 -31z"/>
<path d="M7165 6698 c-3 -7 -4 -330 -3 -718 l3 -705 303 -3 302 -2 0 110 0
110 -180 0 -180 0 0 594 c0 327 -3 601 -6 610 -5 13 -25 16 -120 16 -83 0
-116 -4 -119 -12z"/>
<path d="M8845 6698 c-3 -7 -14 -71 -26 -143 -45 -279 -68 -425 -88 -554 -11
-73 -23 -141 -26 -150 -2 -9 -14 -74 -25 -146 -10 -71 -29 -186 -40 -255 -11
-69 -20 -138 -20 -153 l0 -28 108 3 107 3 17 90 c10 50 20 111 23 138 l6 47
118 0 118 0 18 -117 c28 -178 15 -163 145 -163 87 0 112 3 116 14 3 8 1 43 -5
78 -6 35 -20 122 -31 193 -11 72 -23 137 -26 145 -3 8 -14 71 -24 140 -11 69
-30 193 -44 275 -13 83 -31 195 -40 250 -9 55 -26 155 -38 223 l-22 122 -158
0 c-118 0 -160 -3 -163 -12z m176 -450 c10 -73 27 -200 38 -283 11 -82 23
-162 25 -177 l6 -28 -90 0 -90 0 5 38 c3 20 12 84 20 142 50 385 59 449 63
445 3 -2 13 -64 23 -137z"/>
<path d="M2615 6473 c-195 -26 -369 -189 -412 -385 -9 -43 -20 -78 -24 -78 -5
0 -33 -9 -63 -20 -64 -24 -137 -85 -171 -145 -17 -28 -39 -48 -66 -60 -45 -21
-95 -73 -115 -121 -20 -47 -17 -141 5 -189 23 -51 89 -111 138 -124 24 -7 182
-11 421 -11 l382 0 0 232 0 233 -115 -115 -115 -115 0 90 0 90 148 148 147
147 148 -148 147 -147 0 -90 0 -90 -115 115 -115 115 0 -233 0 -232 293 0
c262 0 300 2 349 19 85 29 118 49 184 113 185 178 184 471 -3 649 -68 65 -114
91 -204 114 -80 21 -192 16 -268 -14 -30 -11 -55 -20 -56 -18 -63 96 -87 126
-129 160 -69 54 -156 93 -243 106 -72 11 -91 12 -148 4z"/>
</g>
</svg>
